<?xml version="1.0" encoding="UTF-8"?>
<svg xmlns="http://www.w3.org/2000/svg" width="1024" height="1024" viewBox="0 0 1024 1024">
  <defs>
    <linearGradient id="goldGrad" x1="0" y1="0" x2="1" y2="1">
      <stop offset="0%" stop-color="#E3C766"/>
      <stop offset="100%" stop-color="#B68B2D"/>
    </linearGradient>
  </defs>
  <!-- 대비 좋은 네이비 배경 원 -->
  <circle cx="512" cy="512" r="504" fill="#0B1520"/>
  <!-- 배경 고려하여 살짝 덜 확대 -->
  <g transform="translate(512 512) scale(1.62) translate(-512 -512)"
     fill="url(#goldGrad)" stroke="none">
    <path d="M240 590
             C320 450 420 330 540 320
             C650 312 720 392 720 500
             C720 640 600 760 480 780
             C600 740 680 630 680 520
             C680 420 620 360 540 360
             C430 360 350 480 280 570
             C260 596 240 600 210 600
             Q190 600 240 590Z"/>
    <path d="M390 650
             C450 730 560 780 670 750
             C750 730 800 670 860 570
             L820 560
             C760 650 700 700 630 720
             C520 750 440 700 390 650Z"/>
    <circle cx="455" cy="540" r="70"/>
  </g>
</svg>
